<?xml version="1.0" encoding="UTF-8" standalone="no"?>
<!-- Created with Inkscape (http://www.inkscape.org/) -->

<svg
   xmlns:dc="http://purl.org/dc/elements/1.1/"
   xmlns:cc="http://creativecommons.org/ns#"
   xmlns:rdf="http://www.w3.org/1999/02/22-rdf-syntax-ns#"
   xmlns:svg="http://www.w3.org/2000/svg"
   xmlns="http://www.w3.org/2000/svg"
   xmlns:sodipodi="http://sodipodi.sourceforge.net/DTD/sodipodi-0.dtd"
   xmlns:inkscape="http://www.inkscape.org/namespaces/inkscape"
   width="334.6904mm"
   height="46.663925mm"
   viewBox="0 0 1185.9109 165.34462"
   id="svg2"
   version="1.1"
   inkscape:version="0.91 r13725"
   sodipodi:docname="logo.svg">
  <defs
     id="defs4" />
  <sodipodi:namedview
     id="base"
     pagecolor="#ffffff"
     bordercolor="#666666"
     borderopacity="1.0"
     inkscape:pageopacity="0.0"
     inkscape:pageshadow="2"
     inkscape:zoom="0.5"
     inkscape:cx="6.9118258"
     inkscape:cy="-28.024624"
     inkscape:document-units="px"
     inkscape:current-layer="layer1"
     showgrid="false"
     inkscape:window-width="2490"
     inkscape:window-height="1075"
     inkscape:window-x="45"
     inkscape:window-y="38"
     inkscape:window-maximized="0"
     showguides="true"
     inkscape:guide-bbox="true"
     fit-margin-top="0"
     fit-margin-left="0"
     fit-margin-right="0"
     fit-margin-bottom="0" />
  <metadata
     id="metadata7">
    <rdf:RDF>
      <cc:Work
         rdf:about="">
        <dc:format>image/svg+xml</dc:format>
        <dc:type
           rdf:resource="http://purl.org/dc/dcmitype/StillImage" />
        <dc:title></dc:title>
      </cc:Work>
    </rdf:RDF>
  </metadata>
  <g
     inkscape:label="Layer 1"
     inkscape:groupmode="layer"
     id="layer1"
     transform="translate(492.46331,-396.77524)">
    <path
       style="fill:#31ba24;fill-opacity:1;stroke:none;stroke-width:10;stroke-linejoin:round;stroke-miterlimit:4;stroke-dasharray:none;stroke-opacity:1"
       d="m 87.788755,412.68119 c -16.667047,1.1319 -23.522333,20.2659 -23.171268,33.4537 0.171395,6.8185 -0.322774,13.7001 -2.731072,20.1457 -11.933844,20.8469 -7.972276,-7.6551 -0.522745,11.4131 3.949853,8.9025 1.446988,18.8417 -0.530186,27.8996 -0.329525,5.185 0.207194,5.6249 3.60892,9.2183 8.359594,8.8308 23.878338,0.034 28.101716,5.7338 3.03796,3.6622 0.769819,9.6098 -3.831569,10.5887 -15.714503,5.1483 -39.536667,-4.5092 -41.094792,-19.4488 -1.378396,-9.0426 3.810771,-17.6218 2.317349,-26.6583 -1.076919,-5.7103 -0.983979,-9.045 -6.142344,-13.2699 5.341454,-7.9422 8.2249,-15.0446 7.583071,-24.68 -0.249246,-19.2347 10.284451,-41.7542 27.778494,-46.4707 4.693825,-1.1473 11.415453,-2.8378 14.668123,1.9067 2.849753,4.4365 -0.681039,10.5887 -6.033697,10.1681 z"
       id="path4242"
       inkscape:connector-curvature="0"
       sodipodi:nodetypes="cccccsccccccccc"
       inkscape:export-xdpi="232.18488"
       inkscape:export-ydpi="232.18488" />
    <path
       style="fill:#31ba24;fill-opacity:1;stroke:none;stroke-width:10;stroke-linejoin:round;stroke-miterlimit:4;stroke-dasharray:none;stroke-opacity:1"
       d="m 77.751432,448.64289 c 8.014169,-9.9074 23.374918,9.0132 6.762949,13.454 -5.086717,1.3598 -11.248693,-7.9086 -6.762949,-13.454 z"
       id="path4244"
       inkscape:connector-curvature="0"
       sodipodi:nodetypes="sss"
       inkscape:export-xdpi="232.18488"
       inkscape:export-ydpi="232.18488" />
    <path
       style="fill:#31ba24;fill-opacity:1;stroke:none;stroke-width:10;stroke-linejoin:round;stroke-miterlimit:4;stroke-dasharray:none;stroke-opacity:1"
       d="m 80.042832,495.70849 c 1.274441,-2.4868 1.187397,-3.0559 1.600266,-4.1456 -5.79277,-1.762 -4.027006,-9.198 0.152353,-10.6303 6.428403,-2.2032 7.669374,5.2054 7.356933,7.3334 -0.337838,2.301 -4.323957,5.1846 -9.109552,7.4425 z"
       id="path4246"
       inkscape:connector-curvature="0"
       sodipodi:nodetypes="ccssc"
       inkscape:export-xdpi="232.18488"
       inkscape:export-ydpi="232.18488" />
    <path
       style="fill:#31ba24;fill-opacity:1;fill-rule:evenodd;stroke:none;stroke-width:1px;stroke-linecap:butt;stroke-linejoin:miter;stroke-opacity:1"
       d="m 73.733913,490.05909 c -5.966335,-1.4774 -16.08951,-1.1701 -16.08951,-1.1701 l 1.170147,11.7014 c 12.522303,0.3261 12.388216,-1.8411 14.919363,-10.5313 z"
       id="path4248"
       inkscape:connector-curvature="0"
       sodipodi:nodetypes="cccc"
       inkscape:export-xdpi="232.18488"
       inkscape:export-ydpi="232.18488" />
    <path
       style="fill:#31ba24;fill-opacity:1;stroke:none;stroke-width:10;stroke-linejoin:round;stroke-miterlimit:4;stroke-dasharray:none;stroke-opacity:1"
       d="m 104.46327,399.92939 c 7.55596,0.3229 14.29717,-1.3986 20.91312,2.2825 7.18838,3.9996 4.58585,12.9365 5.02526,20.1062 -0.0966,34.1071 0.36843,65.7345 -0.034,99.8394 -0.0996,8.4384 -8.03317,8.1234 -14.60849,8.2137 -8.80389,0.1209 -12.66615,1.135 -15.60689,-1.8251 -4.602377,-4.6328 -0.359271,-10.4846 5.97163,-10.4581 5.27182,0.022 8.75513,-0.1785 11.89994,-0.206 -0.68946,-33.4323 -0.52054,-71.659 -0.85557,-105.0514 -8.55906,0.1362 -15.55409,0.8798 -18.483674,-2.1034 -2.676909,-2.7259 -0.4918,-11.0657 5.778694,-10.7978 z"
       id="path4410"
       inkscape:connector-curvature="0"
       sodipodi:nodetypes="sscssssccss"
       inkscape:export-xdpi="232.18488"
       inkscape:export-ydpi="232.18488" />
    <flowRoot
       xml:space="preserve"
       id="flowRoot4433"
       style="font-style:normal;font-weight:normal;font-size:151.63090515px;line-height:125%;font-family:sans-serif;letter-spacing:0px;word-spacing:0px;fill:#31ba24;fill-opacity:1;stroke:none;stroke-width:1px;stroke-linecap:butt;stroke-linejoin:miter;stroke-opacity:1"
       transform="matrix(0.26310567,0,0,0.26310567,-19.292576,275.51439)"
       inkscape:export-xdpi="232.18488"
       inkscape:export-ydpi="232.18488"><flowRegion
         id="flowRegion4435"><rect
           id="rect4437"
           width="8123.084"
           height="2133.6633"
           x="628.00806"
           y="334.63269"
           style="fill:#31ba24;fill-opacity:1" /></flowRegion><flowPara
         id="flowPara4439"
         style="font-style:normal;font-variant:normal;font-weight:bold;font-stretch:normal;font-size:682.33905029px;font-family:'Galano Grotesque DEMO';-inkscape-font-specification:'Galano Grotesque DEMO Bold';fill:#31ba24;fill-opacity:1">hbrew</flowPara></flowRoot>    <flowRoot
       xml:space="preserve"
       id="flowRoot4160"
       style="font-style:normal;font-weight:normal;font-size:40.0150032px;line-height:125%;font-family:sans-serif;letter-spacing:0px;word-spacing:0px;fill:#31ba24;fill-opacity:0.67948716;stroke:none;stroke-width:1px;stroke-linecap:butt;stroke-linejoin:miter;stroke-opacity:1"
       transform="matrix(2.9096275,0,0,2.9096275,415.88206,-781.33401)"><flowRegion
         id="flowRegion4162"><rect
           id="rect4164"
           width="177.87781"
           height="157.73184"
           x="-311.12698"
           y="393.4902"
           style="font-size:40.0150032px;fill:#31ba24;fill-opacity:0.67948716" /></flowRegion><flowPara
         id="flowPara4166"
         style="font-style:normal;font-variant:normal;font-weight:bold;font-stretch:normal;font-size:61.70111847px;font-family:'Galano Grotesque DEMO';-inkscape-font-specification:'Galano Grotesque DEMO Bold';text-align:end;text-anchor:end;fill:#31ba24;fill-opacity:0.67948716">junior</flowPara></flowRoot>  </g>
</svg>
