<?xml version="1.0" encoding="UTF-8" standalone="no"?>
<!-- Created with Inkscape (http://www.inkscape.org/) -->

<svg
   xmlns:dc="http://purl.org/dc/elements/1.1/"
   xmlns:cc="http://creativecommons.org/ns#"
   xmlns:rdf="http://www.w3.org/1999/02/22-rdf-syntax-ns#"
   xmlns:svg="http://www.w3.org/2000/svg"
   xmlns="http://www.w3.org/2000/svg"
   xmlns:sodipodi="http://sodipodi.sourceforge.net/DTD/sodipodi-0.dtd"
   xmlns:inkscape="http://www.inkscape.org/namespaces/inkscape"
   width="183.34702mm"
   height="37.586906mm"
   viewBox="0 0 649.6548 133.18195"
   id="svg2"
   version="1.1"
   inkscape:version="0.91 r13725"
   sodipodi:docname="logo-short.svg">
  <defs
     id="defs4" />
  <sodipodi:namedview
     id="base"
     pagecolor="#ffffff"
     bordercolor="#666666"
     borderopacity="1.0"
     inkscape:pageopacity="0.0"
     inkscape:pageshadow="2"
     inkscape:zoom="0.25"
     inkscape:cx="1146.778"
     inkscape:cy="158.57958"
     inkscape:document-units="px"
     inkscape:current-layer="layer1"
     showgrid="false"
     inkscape:window-width="1316"
     inkscape:window-height="896"
     inkscape:window-x="0"
     inkscape:window-y="1"
     inkscape:window-maximized="0"
     showguides="true"
     inkscape:guide-bbox="true"
     fit-margin-top="0"
     fit-margin-left="0"
     fit-margin-right="0"
     fit-margin-bottom="0" />
  <metadata
     id="metadata7">
    <rdf:RDF>
      <cc:Work
         rdf:about="">
        <dc:format>image/svg+xml</dc:format>
        <dc:type
           rdf:resource="http://purl.org/dc/dcmitype/StillImage" />
        <dc:title></dc:title>
      </cc:Work>
    </rdf:RDF>
  </metadata>
  <g
     inkscape:label="Layer 1"
     inkscape:groupmode="layer"
     id="layer1"
     transform="translate(-43.792764,-399.34957)">
    <path
       style="fill:#31ba24;fill-opacity:1;stroke:none;stroke-width:10;stroke-linejoin:round;stroke-miterlimit:4;stroke-dasharray:none;stroke-opacity:1"
       d="m 87.788755,412.68119 c -16.667047,1.1319 -23.522333,20.2659 -23.171268,33.4537 0.171395,6.8185 -0.322774,13.7001 -2.731072,20.1457 -11.933844,20.8469 -7.972276,-7.6551 -0.522745,11.4131 3.949853,8.9025 1.446988,18.8417 -0.530186,27.8996 -0.329525,5.185 0.207194,5.6249 3.60892,9.2183 8.359594,8.8308 23.878338,0.034 28.101716,5.7338 3.03796,3.6622 0.769819,9.6098 -3.831569,10.5887 -15.714503,5.1483 -39.536667,-4.5092 -41.094792,-19.4488 -1.378396,-9.0426 3.810771,-17.6218 2.317349,-26.6583 -1.076919,-5.7103 -0.983979,-9.045 -6.142344,-13.2699 5.341454,-7.9422 8.2249,-15.0446 7.583071,-24.68 -0.249246,-19.2347 10.284451,-41.7542 27.778494,-46.4707 4.693825,-1.1473 11.415453,-2.8378 14.668123,1.9067 2.849753,4.4365 -0.681039,10.5887 -6.033697,10.1681 z"
       id="path4242"
       inkscape:connector-curvature="0"
       sodipodi:nodetypes="cccccsccccccccc"
       inkscape:export-xdpi="232.18488"
       inkscape:export-ydpi="232.18488" />
    <path
       style="fill:#31ba24;fill-opacity:1;stroke:none;stroke-width:10;stroke-linejoin:round;stroke-miterlimit:4;stroke-dasharray:none;stroke-opacity:1"
       d="m 77.751432,448.64289 c 8.014169,-9.9074 23.374918,9.0132 6.762949,13.454 -5.086717,1.3598 -11.248693,-7.9086 -6.762949,-13.454 z"
       id="path4244"
       inkscape:connector-curvature="0"
       sodipodi:nodetypes="sss"
       inkscape:export-xdpi="232.18488"
       inkscape:export-ydpi="232.18488" />
    <path
       style="fill:#31ba24;fill-opacity:1;stroke:none;stroke-width:10;stroke-linejoin:round;stroke-miterlimit:4;stroke-dasharray:none;stroke-opacity:1"
       d="m 80.042832,495.70849 c 1.274441,-2.4868 1.187397,-3.0559 1.600266,-4.1456 -5.79277,-1.762 -4.027006,-9.198 0.152353,-10.6303 6.428403,-2.2032 7.669374,5.2054 7.356933,7.3334 -0.337838,2.301 -4.323957,5.1846 -9.109552,7.4425 z"
       id="path4246"
       inkscape:connector-curvature="0"
       sodipodi:nodetypes="ccssc"
       inkscape:export-xdpi="232.18488"
       inkscape:export-ydpi="232.18488" />
    <path
       style="fill:#31ba24;fill-opacity:1;fill-rule:evenodd;stroke:none;stroke-width:1px;stroke-linecap:butt;stroke-linejoin:miter;stroke-opacity:1"
       d="m 73.733913,490.05909 c -5.966335,-1.4774 -16.08951,-1.1701 -16.08951,-1.1701 l 1.170147,11.7014 c 12.522303,0.3261 12.388216,-1.8411 14.919363,-10.5313 z"
       id="path4248"
       inkscape:connector-curvature="0"
       sodipodi:nodetypes="cccc"
       inkscape:export-xdpi="232.18488"
       inkscape:export-ydpi="232.18488" />
    <path
       style="fill:#31ba24;fill-opacity:1;stroke:none;stroke-width:10;stroke-linejoin:round;stroke-miterlimit:4;stroke-dasharray:none;stroke-opacity:1"
       d="m 104.46327,399.92939 c 7.55596,0.3229 14.29717,-1.3986 20.91312,2.2825 7.18838,3.9996 4.58585,12.9365 5.02526,20.1062 -0.0966,34.1071 0.36843,65.7345 -0.034,99.8394 -0.0996,8.4384 -8.03317,8.1234 -14.60849,8.2137 -8.80389,0.1209 -12.66615,1.135 -15.60689,-1.8251 -4.602377,-4.6328 -0.359271,-10.4846 5.97163,-10.4581 5.27182,0.022 8.75513,-0.1785 11.89994,-0.206 -0.68946,-33.4323 -0.52054,-71.659 -0.85557,-105.0514 -8.55906,0.1362 -15.55409,0.8798 -18.483674,-2.1034 -2.676909,-2.7259 -0.4918,-11.0657 5.778694,-10.7978 z"
       id="path4410"
       inkscape:connector-curvature="0"
       sodipodi:nodetypes="sscssssccss"
       inkscape:export-xdpi="232.18488"
       inkscape:export-ydpi="232.18488" />
    <g
       transform="matrix(0.26310567,0,0,0.26310567,-19.292576,275.51439)"
       style="font-style:normal;font-weight:normal;font-size:151.63090515px;line-height:125%;font-family:sans-serif;letter-spacing:0px;word-spacing:0px;fill:#31ba24;fill-opacity:1;stroke:none;stroke-width:1px;stroke-linecap:butt;stroke-linejoin:miter;stroke-opacity:1"
       id="flowRoot4433">
      <path
         d="m 882.52028,613.65894 c -43.6697,0 -79.15133,15.6938 -105.76255,42.98736 l 0,-181.50219 -109.17425,0 0,491.28412 109.17425,0 0,-158.985 c 0,-66.18689 27.9759,-95.52747 70.28092,-95.52747 35.48163,0 59.3635,27.29357 59.3635,67.55157 l 0,186.9609 108.49195,0 0,-210.16043 c 0,-85.97472 -53.22249,-142.60886 -132.37382,-142.60886 z"
         style="font-style:normal;font-variant:normal;font-weight:bold;font-stretch:normal;font-size:682.33905029px;font-family:'Galano Grotesque DEMO';-inkscape-font-specification:'Galano Grotesque DEMO Bold';fill:#31ba24;fill-opacity:1"
         id="path4160"
         inkscape:connector-curvature="0" />
      <path
         d="m 1305.6665,613.65894 c -44.3521,0 -79.8337,13.64678 -106.4449,37.52865 l 0,-176.04348 -109.1743,0 0,491.28412 109.1743,0 0,-27.29356 c 26.6112,23.88186 62.0928,37.52865 106.4449,37.52865 90.751,0 167.173,-73.01028 167.173,-181.50219 0,-107.80957 -76.422,-181.50219 -167.173,-181.50219 z m -22.5172,270.20626 c -44.3521,0 -83.9277,-35.48163 -83.9277,-88.70407 0,-52.54011 39.5756,-88.70408 83.9277,-88.70408 47.7637,0 82.563,36.16397 82.563,88.70408 0,53.22244 -34.7993,88.70407 -82.563,88.70407 z"
         style="font-style:normal;font-variant:normal;font-weight:bold;font-stretch:normal;font-size:682.33905029px;font-family:'Galano Grotesque DEMO';-inkscape-font-specification:'Galano Grotesque DEMO Bold';fill:#31ba24;fill-opacity:1"
         id="path4162"
         inkscape:connector-curvature="0" />
      <path
         d="m 1757.0551,619.11765 c -55.9518,0 -93.4805,29.34058 -118.0447,70.28093 l 0,-65.50455 -109.1742,0 0,342.5342 109.1742,0 0,-107.12723 c 0,-88.70408 41.6227,-128.27974 118.0447,-128.27974 l 19.7878,0 4.7764,-109.17425 c -8.1881,-2.04702 -15.0115,-2.72936 -24.5642,-2.72936 z"
         style="font-style:normal;font-variant:normal;font-weight:bold;font-stretch:normal;font-size:682.33905029px;font-family:'Galano Grotesque DEMO';-inkscape-font-specification:'Galano Grotesque DEMO Bold';fill:#31ba24;fill-opacity:1"
         id="path4164"
         inkscape:connector-curvature="0" />
      <path
         d="m 2161.4049,795.16113 c -2.047,-111.90361 -79.8337,-181.50219 -176.7258,-181.50219 -99.6215,0 -181.5022,73.69262 -181.5022,181.50219 0,108.49191 81.8807,181.50219 180.8198,181.50219 78.469,0 140.5619,-34.7993 169.9025,-107.12724 l -96.8922,-19.78783 c -18.4231,33.43462 -47.7637,39.57567 -73.0103,39.57567 -36.8463,0 -64.8222,-25.24655 -73.6926,-66.18689 l 251.1008,0 0,-27.9759 z m -176.7258,-92.79811 c 31.3876,0 58.6811,17.05847 68.9162,53.90478 l -141.2442,0 c 10.2351,-34.79929 41.6227,-53.90478 72.328,-53.90478 z"
         style="font-style:normal;font-variant:normal;font-weight:bold;font-stretch:normal;font-size:682.33905029px;font-family:'Galano Grotesque DEMO';-inkscape-font-specification:'Galano Grotesque DEMO Bold';fill:#31ba24;fill-opacity:1"
         id="path4166"
         inkscape:connector-curvature="0" />
      <path
         d="m 2708.95,623.89403 -107.1272,0 -55.9518,184.91388 -64.8222,-184.91388 -77.1043,0 -64.8222,184.23154 -55.9519,-184.23154 -107.1272,0 109.8566,343.21654 94.8451,0 62.0929,-185.59622 61.4105,185.59622 94.8451,0 109.8566,-343.21654 z"
         style="font-style:normal;font-variant:normal;font-weight:bold;font-stretch:normal;font-size:682.33905029px;font-family:'Galano Grotesque DEMO';-inkscape-font-specification:'Galano Grotesque DEMO Bold';fill:#31ba24;fill-opacity:1"
         id="path4168"
         inkscape:connector-curvature="0" />
    </g>
  </g>
</svg>
